<svg width="50" height="49" viewBox="0 0 50 49" fill="none" xmlns="http://www.w3.org/2000/svg">
<path d="M24.8131 48.9463C38.5169 48.9463 49.6261 37.9893 49.6261 24.4731C49.6261 10.957 38.5169 0 24.8131 0C11.1092 0 0 10.957 0 24.4731C0 37.9893 11.1092 48.9463 24.8131 48.9463Z" fill="#FFB5D1"/>
<path fill-rule="evenodd" clip-rule="evenodd" d="M25.0856 35.088C25.0856 29.2256 20.2671 24.4731 14.3233 24.4731C14.1429 24.4731 13.9634 24.4775 13.7852 24.4862V35.088H25.0856Z" fill="white"/>
<path fill-rule="evenodd" clip-rule="evenodd" d="M24.5475 13.5958C18.6036 13.5958 13.7852 18.3482 13.7852 24.2107H24.8132H25.0856H36.1136C36.1136 18.3482 31.2952 13.5958 25.3513 13.5958C25.2168 13.5958 25.0828 13.5983 24.9494 13.6031C24.816 13.5983 24.682 13.5958 24.5475 13.5958Z" fill="#3182FF"/>
<path d="M30.1936 35.088C33.1656 35.088 35.5748 32.7118 35.5748 29.7806C35.5748 26.8494 33.1656 24.4731 30.1936 24.4731C27.2217 24.4731 24.8125 26.8494 24.8125 29.7806C24.8125 32.7118 27.2217 35.088 30.1936 35.088Z" fill="#FE4200"/>
</svg>
