<svg width="16" height="16" viewBox="0 0 16 16" fill="none" xmlns="http://www.w3.org/2000/svg">
<g clip-path="url(#clip0_466_6901)">
<mask id="mask0_466_6901" style="mask-type:luminance" maskUnits="userSpaceOnUse" x="0" y="0" width="16" height="16">
<path d="M16 0H0V16H16V0Z" fill="white"/>
</mask>
<g mask="url(#mask0_466_6901)">
<mask id="mask1_466_6901" style="mask-type:luminance" maskUnits="userSpaceOnUse" x="0" y="0" width="16" height="16">
<path d="M16 0H0V16H16V0Z" fill="white"/>
</mask>
<g mask="url(#mask1_466_6901)">
<path d="M0.292786 0.293569C0.480314 0.106098 0.734622 0.000783017 0.999786 0.000783017C1.26495 0.000783017 1.51926 0.106098 1.70679 0.293569L7.99979 6.58657L14.2928 0.293569C14.385 0.198059 14.4954 0.121877 14.6174 0.0694681C14.7394 0.0170591 14.8706 -0.0105272 15.0034 -0.011681C15.1362 -0.0128348 15.2678 0.0124669 15.3907 0.0627478C15.5136 0.113029 15.6253 0.187282 15.7192 0.281174C15.8131 0.375067 15.8873 0.486719 15.9376 0.609615C15.9879 0.732512 16.0132 0.864191 16.012 0.996971C16.0109 1.12975 15.9833 1.26097 15.9309 1.38297C15.8785 1.50498 15.8023 1.61532 15.7068 1.70757L9.41379 8.00057L15.7068 14.2936C15.8889 14.4822 15.9897 14.7348 15.9875 14.997C15.9852 15.2592 15.88 15.51 15.6946 15.6954C15.5092 15.8808 15.2584 15.986 14.9962 15.9882C14.734 15.9905 14.4814 15.8897 14.2928 15.7076L7.99979 9.41457L1.70679 15.7076C1.51818 15.8897 1.26558 15.9905 1.00339 15.9882C0.741189 15.986 0.490376 15.8808 0.304968 15.6954C0.11956 15.51 0.0143908 15.2592 0.0121124 14.997C0.00983399 14.7348 0.110628 14.4822 0.292786 14.2936L6.58579 8.00057L0.292786 1.70757C0.105315 1.52004 0 1.26573 0 1.00057C0 0.735405 0.105315 0.481097 0.292786 0.293569Z" fill="#F88216"/>
</g>
</g>
</g>
<defs>
<clipPath id="clip0_466_6901">
<rect width="16" height="16" fill="white"/>
</clipPath>
</defs>
</svg>
