<svg width="51" height="49" viewBox="0 0 51 49" fill="none" xmlns="http://www.w3.org/2000/svg">
<path d="M25.2115 48.9463C38.9154 48.9463 50.0245 37.9893 50.0245 24.4731C50.0245 10.957 38.9154 0 25.2115 0C11.5076 0 0.398438 10.957 0.398438 24.4731C0.398438 37.9893 11.5076 48.9463 25.2115 48.9463Z" fill="#3182FF"/>
<path d="M36.7917 24.4727H13.6328L25.2191 13.5957L36.7917 24.4727Z" fill="white"/>
<path d="M36.7917 35.3499H13.6328L25.2191 24.4729L36.7917 35.3499Z" fill="#FFB5D1"/>
<path d="M25.212 24.473C27.6482 24.473 29.6232 22.5251 29.6232 20.1223C29.6232 17.7194 27.6482 15.7715 25.212 15.7715C22.7757 15.7715 20.8008 17.7194 20.8008 20.1223C20.8008 22.5251 22.7757 24.473 25.212 24.473Z" fill="#FEAA00"/>
</svg>
