<svg width="11" height="11" viewBox="0 0 11 11" fill="none" xmlns="http://www.w3.org/2000/svg">
<path d="M3.64844 4.60465H6.77344C6.94609 4.60465 7.08594 4.46481 7.08594 4.29215V3.97965C7.08594 3.807 6.94609 3.66715 6.77344 3.66715H3.64844C3.47578 3.66715 3.33594 3.807 3.33594 3.97965V4.29215C3.33594 4.46481 3.47578 4.60465 3.64844 4.60465ZM3.33594 6.16714C3.33594 6.33979 3.47578 6.47964 3.64844 6.47964H6.77344C6.94609 6.47964 7.08594 6.33979 7.08594 6.16714V5.85464C7.08594 5.68199 6.94609 5.54214 6.77344 5.54214H3.64844C3.47578 5.54214 3.33594 5.68199 3.33594 5.85464V6.16714ZM5.21094 8.53294C4.89023 8.53294 4.56953 8.43412 4.2957 8.23627L0.210938 5.2855V9.44837C0.210938 9.96614 0.630664 10.3859 1.14844 10.3859H9.27344C9.79121 10.3859 10.2109 9.96614 10.2109 9.44837V5.2855L6.12617 8.23627C5.85234 8.43392 5.53164 8.53294 5.21094 8.53294ZM9.85176 3.56852C9.67891 3.43298 9.51504 3.30544 9.27344 3.12302V2.26091C9.27344 1.74314 8.85371 1.32342 8.33594 1.32342H6.82129C6.76191 1.28045 6.70664 1.24022 6.64473 1.19529C6.31641 0.955648 5.66406 0.379089 5.21094 0.385925C4.75781 0.379089 4.10566 0.955648 3.77715 1.19529C3.71523 1.24022 3.65996 1.28045 3.60059 1.32342H2.08594C1.56816 1.32342 1.14844 1.74314 1.14844 2.26091V3.12302C0.906836 3.30524 0.742969 3.43298 0.570117 3.56852C0.458234 3.6562 0.367757 3.76818 0.30553 3.89598C0.243303 4.02379 0.210957 4.16407 0.210938 4.30621L0.210938 4.51422L2.08594 5.8687V2.26091H8.33594V5.8687L10.2109 4.51422V4.30621C10.2109 4.01832 10.0785 3.74626 9.85176 3.56852Z" fill="white"/>
</svg>
