<svg width="36" height="36" viewBox="0 0 36 36" fill="none" xmlns="http://www.w3.org/2000/svg">
<path d="M13.2 34H22.8C30.8 34 34 30.8 34 22.8V13.2C34 5.2 30.8 2 22.8 2H13.2C5.2 2 2 5.2 2 13.2V22.8C2 30.8 5.2 34 13.2 34Z" stroke="#292D32" stroke-width="3.98817" stroke-linecap="round" stroke-linejoin="round"/>
<path d="M18.0004 23.6001C21.0932 23.6001 23.6004 21.0929 23.6004 18.0001C23.6004 14.9073 21.0932 12.4001 18.0004 12.4001C14.9076 12.4001 12.4004 14.9073 12.4004 18.0001C12.4004 21.0929 14.9076 23.6001 18.0004 23.6001Z" stroke="#292D32" stroke-width="3.98817" stroke-linecap="round" stroke-linejoin="round"/>
<path d="M27.0176 10H27.0361" stroke="#292D32" stroke-width="5.31757" stroke-linecap="round" stroke-linejoin="round"/>
</svg>
