<svg width="20" height="20" viewBox="0 0 20 20" fill="none" xmlns="http://www.w3.org/2000/svg">
<path d="M9.53582 19.0716C4.27949 19.0716 0 14.7921 0 9.53582C0 4.27949 4.27949 0 9.53582 0C14.7921 0 19.0716 4.27949 19.0716 9.53582C19.0716 14.7921 14.7921 19.0716 9.53582 19.0716ZM9.53582 1.39549C5.04235 1.39549 1.39549 5.05166 1.39549 9.53582C1.39549 14.02 5.04235 17.6761 9.53582 17.6761C14.0293 17.6761 17.6761 14.02 17.6761 9.53582C17.6761 5.05166 14.0293 1.39549 9.53582 1.39549Z" fill="#CCCCCC"/>
<path d="M19.3041 20.0019C19.1273 20.0019 18.9506 19.9367 18.811 19.7972L16.9504 17.9365C16.6806 17.6667 16.6806 17.2202 16.9504 16.9504C17.2202 16.6806 17.6667 16.6806 17.9365 16.9504L19.7972 18.811C20.067 19.0808 20.067 19.5274 19.7972 19.7972C19.6576 19.9367 19.4809 20.0019 19.3041 20.0019Z" fill="#CCCCCC"/>
</svg>
