<svg width="12" height="13" viewBox="0 0 12 13" fill="none" xmlns="http://www.w3.org/2000/svg">
<path d="M5.76735 0C5.91092 0 6.0545 0 6.19807 0C6.46388 0.00474059 6.69414 0.122578 6.92338 0.235675C7.66935 0.602394 8.4231 0.953875 9.1711 1.31687C9.84324 1.64295 10.5228 1.95346 11.1892 2.29106C11.7026 2.55112 11.9775 2.98759 11.9813 3.55307C11.9945 5.50687 11.9941 7.46067 11.9816 9.41448C11.9779 9.97624 11.7077 10.4151 11.1991 10.6697C10.15 11.1952 9.08712 11.692 8.02828 12.1969C7.57115 12.4149 7.12079 12.6469 6.65723 12.8511C6.22888 13.0397 5.78056 13.0563 5.35661 12.8599C4.15792 12.3049 2.97277 11.7214 1.78085 11.1526C1.45341 10.9961 1.12191 10.8478 0.801245 10.6775C0.294679 10.4086 0.0122747 9.98301 0.00888861 9.41414C-0.00296287 7.46034 -0.00296287 5.50654 0.00888861 3.55273C0.0122747 2.9842 0.289261 2.54739 0.80226 2.29174C1.97725 1.70627 3.16815 1.15433 4.34958 0.582416C4.66855 0.428008 4.98888 0.275632 5.30853 0.122917C5.45549 0.0524851 5.60956 0.0230257 5.76735 0Z" fill="white"/>
<path d="M3.37424 5.02403C3.66021 5.02805 3.87927 5.13066 4.06441 5.31759C4.46415 5.72045 4.86968 6.11751 5.2654 6.52394C5.35865 6.61985 5.40638 6.6319 5.50855 6.52884C6.31382 5.71331 7.12489 4.90358 7.9373 4.09563C8.37451 3.66109 9.02587 3.71329 9.35065 4.20136C9.57238 4.53462 9.54561 4.98388 9.28106 5.28502C9.19674 5.38094 9.10349 5.46927 9.01293 5.55939C7.84495 6.72782 6.67519 7.8949 5.51078 9.06734C5.41218 9.16639 5.36445 9.16594 5.26719 9.06734C4.44139 8.23307 3.60891 7.4055 2.77999 6.57435C2.52168 6.31559 2.43825 6.0033 2.54577 5.65531C2.64927 5.31937 2.88885 5.11861 3.23103 5.04232C3.28457 5.02983 3.34078 5.02805 3.37424 5.02403Z" fill="#F88216"/>
</svg>
