<svg width="50" height="50" viewBox="0 0 50 50" fill="none" xmlns="http://www.w3.org/2000/svg">
<path d="M25.0552 49.1299C38.7591 49.1299 49.8683 38.1729 49.8683 24.6567C49.8683 11.1406 38.7591 0.183594 25.0552 0.183594C11.3514 0.183594 0.242188 11.1406 0.242188 24.6567C0.242188 38.1729 11.3514 49.1299 25.0552 49.1299Z" fill="#A3CFFF"/>
<path fill-rule="evenodd" clip-rule="evenodd" d="M25.8792 35.2715H14.0273V24.7103C14.3856 24.6748 14.7491 24.6566 15.1169 24.6566C21.0607 24.6566 25.8792 29.409 25.8792 35.2715Z" fill="white"/>
<path fill-rule="evenodd" clip-rule="evenodd" d="M24.7896 35.0094C30.7335 35.0094 35.5519 30.2569 35.5519 24.3945C35.5519 18.8948 31.3113 14.372 25.8792 13.8334V13.7927C25.7009 13.7841 25.5215 13.7797 25.341 13.7797C25.2489 13.7797 25.1569 13.7808 25.0653 13.7831C24.9737 13.7808 24.8818 13.7797 24.7896 13.7797C18.8458 13.7797 14.0273 18.5321 14.0273 24.3945C14.0273 30.2569 18.8458 35.0094 24.7896 35.0094Z" fill="#3182FF"/>
<path d="M24.9222 29.8334C27.8941 29.8334 30.3033 27.4571 30.3033 24.5259C30.3033 21.5947 27.8941 19.2185 24.9222 19.2185C21.9502 19.2185 19.541 21.5947 19.541 24.5259C19.541 27.4571 21.9502 29.8334 24.9222 29.8334Z" fill="#FFB5D1"/>
</svg>
