<svg width="32" height="32" viewBox="0 0 32 32" fill="none" xmlns="http://www.w3.org/2000/svg">
<path d="M1.12349 32.0074C0.825886 32.0074 0.543116 31.8884 0.334793 31.6801C0.0520674 31.3973 -0.0669006 30.9807 0.0372613 30.5938L1.91219 23.5852C0.662248 21.2639 0.00747101 18.6449 0.00747101 15.9963C0.00747101 7.17229 7.17976 0 16.0037 0C24.8277 0 32 7.17229 32 15.9963C32 24.8203 24.8277 31.9925 16.0037 31.9925C13.3104 31.9925 10.6767 31.3229 8.32559 30.0432L1.42111 31.9628C1.31695 31.9925 1.22765 32.0074 1.12349 32.0074ZM8.47435 27.7368C8.66779 27.7368 8.86125 27.7965 9.03981 27.8857C11.1379 29.1208 13.5485 29.7754 16.0037 29.7754C23.5926 29.7754 29.768 23.6001 29.768 16.0111C29.768 8.42225 23.5926 2.24694 16.0037 2.24694C8.41483 2.24694 2.23951 8.42225 2.23951 16.0111C2.23951 18.4366 2.87935 20.8026 4.08465 22.8858C4.23345 23.1388 4.27812 23.4513 4.20372 23.734L2.7157 29.2992L8.19162 27.7814C8.2809 27.7517 8.38507 27.7368 8.47435 27.7368Z" fill="black"/>
<path d="M20.0818 24.5817C19.1592 24.5817 18.2069 24.3734 17.2099 23.9418C16.2724 23.5401 15.335 23.0044 14.4273 22.3348C13.5345 21.68 12.6566 20.936 11.8531 20.1325C11.0496 19.3141 10.3055 18.451 9.65074 17.5582C8.98113 16.6207 8.44544 15.6982 8.05855 14.7905C7.6419 13.8084 7.43359 12.8412 7.43359 11.9186C7.43359 11.2638 7.55261 10.6389 7.77581 10.0585C8.01389 9.44845 8.4008 8.89787 8.90673 8.4217C9.85906 7.48424 11.2281 7.14203 12.3144 7.66284C12.6864 7.82652 12.9989 8.09436 13.237 8.45149L14.963 10.8769C15.1415 11.115 15.2756 11.368 15.3798 11.621C15.4988 11.9186 15.5732 12.2162 15.5732 12.4989C15.5732 12.8858 15.4689 13.2727 15.2606 13.6149C15.1267 13.8381 14.9332 14.106 14.6802 14.3589L14.4868 14.5673C14.5761 14.6863 14.6802 14.8351 14.8439 15.0137C15.1564 15.3708 15.4987 15.7577 15.8707 16.1297C16.2427 16.4868 16.6147 16.844 16.9867 17.1564C17.1652 17.3052 17.3142 17.4243 17.4332 17.4987L17.6414 17.2904C17.9093 17.0225 18.1773 16.8142 18.4451 16.6803C18.9361 16.3678 19.6949 16.2934 20.3645 16.5761C20.6026 16.6654 20.8407 16.7993 21.0936 16.9779L23.5788 18.7337C23.921 18.9718 24.1887 19.2992 24.3673 19.6712C24.5161 20.0432 24.5758 20.3706 24.5758 20.7128C24.5758 21.1592 24.4715 21.5908 24.278 22.0074C24.0846 22.3943 23.8614 22.7365 23.5935 23.049C23.1174 23.5698 22.5669 23.9567 21.9717 24.2097C21.3765 24.4627 20.7365 24.5817 20.0818 24.5817ZM11.228 9.67164C11.1388 9.67164 10.8412 9.67164 10.4692 10.0437C10.1865 10.3115 9.99302 10.5943 9.85909 10.9067C9.72517 11.2192 9.66563 11.5763 9.66563 11.9335C9.66563 12.5584 9.81442 13.228 10.112 13.9423C10.4245 14.6863 10.8858 15.475 11.4513 16.2636C12.0316 17.0523 12.6864 17.8409 13.4156 18.5701C14.1447 19.2843 14.9183 19.9539 15.7219 20.5491C16.4956 21.1146 17.2844 21.561 18.0731 21.9032C19.204 22.3943 20.2455 22.5133 21.0936 22.1562C21.3912 22.0372 21.6591 21.8288 21.9269 21.561C22.0609 21.4122 22.1652 21.2634 22.2544 21.07C22.2991 20.9658 22.3287 20.8467 22.3287 20.7426C22.3287 20.7128 22.3287 20.6682 22.2841 20.5789L19.7991 18.8528C19.6949 18.7784 19.5907 18.7189 19.5015 18.6891C19.4419 18.7189 19.3528 18.7635 19.1891 18.9272L18.6237 19.4926C18.1921 19.9242 17.5076 20.0432 16.9571 19.8498L16.6892 19.7307C16.347 19.5522 15.9599 19.2843 15.5284 18.9123C15.1118 18.5552 14.7102 18.1832 14.2786 17.7665C13.862 17.335 13.49 16.9332 13.1328 16.5166C12.7459 16.0553 12.478 15.6833 12.2995 15.3708L12.1358 14.9839C12.0912 14.8351 12.0762 14.6714 12.0762 14.5226C12.0762 14.106 12.2251 13.734 12.5078 13.4364L13.0733 12.856C13.237 12.6924 13.2965 12.6031 13.3263 12.5436C13.2816 12.4394 13.2221 12.3501 13.1477 12.2459L11.4066 9.79072L11.228 9.67164Z" fill="black"/>
</svg>
